<mxfile host="app.diagrams.net" modified="2023-09-04T19:40:13.035Z" agent="Mozilla/5.0 (Windows NT 10.0; Win64; x64; rv:109.0) Gecko/20100101 Firefox/117.0" etag="QBV-aMJuh6SGmbjwS9ui" version="21.7.2" type="device">
  <diagram name="Page-1" id="sYI_a0JwZsrwDPZrMxwS">
    <mxGraphModel dx="1050" dy="538" grid="1" gridSize="10" guides="1" tooltips="1" connect="1" arrows="1" fold="1" page="1" pageScale="1" pageWidth="850" pageHeight="1100" math="0" shadow="0">
      <root>
        <mxCell id="0" />
        <mxCell id="1" parent="0" />
        <mxCell id="6eHz1UnMhSATqTKyC428-1" value="Initial user flow" style="rounded=0;whiteSpace=wrap;html=1;" vertex="1" parent="1">
          <mxGeometry x="250" y="60" width="350" height="60" as="geometry" />
        </mxCell>
        <mxCell id="6eHz1UnMhSATqTKyC428-4" value="" style="edgeStyle=orthogonalEdgeStyle;rounded=0;orthogonalLoop=1;jettySize=auto;html=1;" edge="1" parent="1" source="6eHz1UnMhSATqTKyC428-2" target="6eHz1UnMhSATqTKyC428-3">
          <mxGeometry relative="1" as="geometry" />
        </mxCell>
        <mxCell id="6eHz1UnMhSATqTKyC428-5" value="&lt;div&gt;New user?&lt;/div&gt;" style="edgeLabel;html=1;align=center;verticalAlign=middle;resizable=0;points=[];" vertex="1" connectable="0" parent="6eHz1UnMhSATqTKyC428-4">
          <mxGeometry x="-0.0471" y="-2" relative="1" as="geometry">
            <mxPoint as="offset" />
          </mxGeometry>
        </mxCell>
        <mxCell id="6eHz1UnMhSATqTKyC428-9" value="" style="edgeStyle=orthogonalEdgeStyle;rounded=0;orthogonalLoop=1;jettySize=auto;html=1;" edge="1" parent="1" source="6eHz1UnMhSATqTKyC428-2" target="6eHz1UnMhSATqTKyC428-8">
          <mxGeometry relative="1" as="geometry" />
        </mxCell>
        <mxCell id="6eHz1UnMhSATqTKyC428-2" value="&lt;div&gt;Login&lt;/div&gt;&lt;div&gt;/login&lt;br&gt;&lt;/div&gt;" style="rounded=0;whiteSpace=wrap;html=1;" vertex="1" parent="1">
          <mxGeometry x="210" y="210" width="120" height="60" as="geometry" />
        </mxCell>
        <mxCell id="6eHz1UnMhSATqTKyC428-7" value="" style="edgeStyle=orthogonalEdgeStyle;rounded=0;orthogonalLoop=1;jettySize=auto;html=1;" edge="1" parent="1" source="6eHz1UnMhSATqTKyC428-3" target="6eHz1UnMhSATqTKyC428-6">
          <mxGeometry relative="1" as="geometry" />
        </mxCell>
        <mxCell id="6eHz1UnMhSATqTKyC428-3" value="&lt;div&gt;Signup&lt;/div&gt;/signup" style="rounded=0;whiteSpace=wrap;html=1;" vertex="1" parent="1">
          <mxGeometry x="500" y="210" width="120" height="60" as="geometry" />
        </mxCell>
        <mxCell id="6eHz1UnMhSATqTKyC428-10" style="edgeStyle=orthogonalEdgeStyle;rounded=0;orthogonalLoop=1;jettySize=auto;html=1;entryX=1;entryY=0.5;entryDx=0;entryDy=0;" edge="1" parent="1" source="6eHz1UnMhSATqTKyC428-6" target="6eHz1UnMhSATqTKyC428-8">
          <mxGeometry relative="1" as="geometry" />
        </mxCell>
        <mxCell id="6eHz1UnMhSATqTKyC428-6" value="&lt;div&gt;Confirm User&lt;/div&gt;/confirm-user" style="rounded=0;whiteSpace=wrap;html=1;" vertex="1" parent="1">
          <mxGeometry x="500" y="350" width="120" height="60" as="geometry" />
        </mxCell>
        <mxCell id="6eHz1UnMhSATqTKyC428-8" value="&lt;div&gt;Input Form&lt;/div&gt;/form" style="whiteSpace=wrap;html=1;rounded=0;" vertex="1" parent="1">
          <mxGeometry x="210" y="350" width="120" height="60" as="geometry" />
        </mxCell>
      </root>
    </mxGraphModel>
  </diagram>
</mxfile>
